<svg xmlns="http://www.w3.org/2000/svg" id="another-prefigure-figure" width="310" height="310" viewBox="0 0 310 310">
  <defs>
    <clipPath id="another-prefigure-clipPath-0">
      <rect x="5.0" y="5.0" width="300.0" height="300.0"/>
    </clipPath>
    <clipPath id="another-prefigure-clipPath-1">
      <rect x="5.0" y="5.0" width="300.0" height="300.0"/>
    </clipPath>
    <marker id="another-prefigure-arrow-head-end-4_None_24_60-black" markerWidth="18.0" markerHeight="16.0" markerUnits="userSpaceOnUse" orient="auto-start-reverse" refX="13.1" refY="8.0">
      <path d="M 18.0 8.0L 0.0 16.0L 3.5 10.0L 3.5 6.0L 0.0 0.0Z" fill="black" stroke="none"/>
    </marker>
    <marker id="another-prefigure-arrow-head-end-4_None_24_60-black-outline" markerWidth="22.0" markerHeight="20.0" markerUnits="userSpaceOnUse" orient="auto-start-reverse" refX="15.1" refY="10.0">
      <path d="M 20.8 11.8 L 2.8 19.8 A 2 2 0 0 1 0.0 18.0 L 0.0 2.0 A 2 2 0 0 1 2.8 0.2 L 20.8 8.2 A 2 2 0 0 1 20.8 11.8 Z" fill="white" stroke="none"/>
    </marker>
  </defs>
  <path id="another-prefigure-path-0" stroke="#ccc" stroke-width="2" fill="none" d="M 35.0 305.0 L 185.0 5.0 M 125.0 305.0 L 275.0 5.0 M 215.0 305.0 L 305.0 125.0 M 305.0 305.0 L 305.0 305.0 M 5.0 185.0 L 95.0 5.0 M 5.0 5.0 L 5.0 5.0 M 5.0 275.0 L 305.0 125.0 M 5.0 185.0 L 305.0 35.0 M 5.0 95.0 L 185.0 5.0 M 5.0 5.0 L 5.0 5.0 M 125.0 305.0 L 305.0 215.0 M 305.0 305.0 L 305.0 305.0"/>
  <g id="another-prefigure-axes" stroke="black" stroke-width="2">
    <line id="another-prefigure-line-0" x1="5.0" y1="245.0" x2="305.0" y2="245.0" stroke="black" stroke-width="2"/>
    <g>
      <line id="another-prefigure-line-1" x1="125.0" y1="248.0" x2="125.0" y2="242.0"/>
      <line id="another-prefigure-line-2" x1="185.0" y1="248.0" x2="185.0" y2="242.0"/>
      <line id="another-prefigure-line-3" x1="245.0" y1="248.0" x2="245.0" y2="242.0"/>
    </g>
    <line id="another-prefigure-line-4" x1="65.0" y1="305.0" x2="65.0" y2="5.0" stroke="black" stroke-width="2"/>
    <g>
      <line id="another-prefigure-line-5" x1="62.0" y1="185.0" x2="68.0" y2="185.0"/>
      <line id="another-prefigure-line-6" x1="62.0" y1="125.0" x2="68.0" y2="125.0"/>
      <line id="another-prefigure-line-7" x1="62.0" y1="65.0" x2="68.0" y2="65.0"/>
    </g>
  </g>
  <g id="another-prefigure-label-0" transform="translate(125.0,256.0) translate(-4.5,-0.0)">
    <g id="another-prefigure-g-0">
      <svg xmlns:xlink="http://www.w3.org/1999/xlink" style="vertical-align: 0.000px" width="9.048px" height="12.056px" role="img" focusable="false" viewBox="0 -666 500 666" x="0.0" y="0.0">
        <defs>
          <path id="another-prefigure-MJX-2-TEX-N-31" d="M213 578L200 573Q186 568 160 563T102 556H83V602H102Q149 604 189 617T245 641T273 663Q275 666 285 666Q294 666 302 660V361L303 61Q310 54 315 52T339 48T401 46H427V0H416Q395 3 257 3Q121 3 100 0H88V46H114Q136 46 152 46T177 47T193 50T201 52T207 57T213 61V578Z"/>
        </defs>
        <g stroke="currentColor" fill="currentColor" stroke-width="0" transform="scale(1,-1)">
          <g data-mml-node="math">
            <g data-mml-node="mtext" data-semantic-type="text" data-semantic-role="integer" data-semantic-font="normal" data-semantic-annotation="clearspeak:unit" data-semantic-id="0" data-semantic-speech="1">
              <use data-c="31" xlink:href="#another-prefigure-MJX-2-TEX-N-31"/>
            </g>
          </g>
        </g>
      </svg>
    </g>
  </g>
  <g id="another-prefigure-label-1" transform="translate(185.0,256.0) translate(-4.5,-0.0)">
    <g id="another-prefigure-g-1">
      <svg xmlns:xlink="http://www.w3.org/1999/xlink" style="vertical-align: 0.000px" width="9.048px" height="12.056px" role="img" focusable="false" viewBox="0 -666 500 666" x="0.0" y="0.0">
        <defs>
          <path id="another-prefigure-MJX-3-TEX-N-32" d="M109 429Q82 429 66 447T50 491Q50 562 103 614T235 666Q326 666 387 610T449 465Q449 422 429 383T381 315T301 241Q265 210 201 149L142 93L218 92Q375 92 385 97Q392 99 409 186V189H449V186Q448 183 436 95T421 3V0H50V19V31Q50 38 56 46T86 81Q115 113 136 137Q145 147 170 174T204 211T233 244T261 278T284 308T305 340T320 369T333 401T340 431T343 464Q343 527 309 573T212 619Q179 619 154 602T119 569T109 550Q109 549 114 549Q132 549 151 535T170 489Q170 464 154 447T109 429Z"/>
        </defs>
        <g stroke="currentColor" fill="currentColor" stroke-width="0" transform="scale(1,-1)">
          <g data-mml-node="math">
            <g data-mml-node="mtext" data-semantic-type="text" data-semantic-role="integer" data-semantic-font="normal" data-semantic-annotation="clearspeak:unit" data-semantic-id="0" data-semantic-speech="2">
              <use data-c="32" xlink:href="#another-prefigure-MJX-3-TEX-N-32"/>
            </g>
          </g>
        </g>
      </svg>
    </g>
  </g>
  <g id="another-prefigure-label-2" transform="translate(245.0,256.0) translate(-4.5,-0.0)">
    <g id="another-prefigure-g-2">
      <svg xmlns:xlink="http://www.w3.org/1999/xlink" style="vertical-align: -0.400px" width="9.048px" height="12.432px" role="img" focusable="false" viewBox="0 -665 500 687" x="0.0" y="0.0">
        <defs>
          <path id="another-prefigure-MJX-4-TEX-N-33" d="M127 463Q100 463 85 480T69 524Q69 579 117 622T233 665Q268 665 277 664Q351 652 390 611T430 522Q430 470 396 421T302 350L299 348Q299 347 308 345T337 336T375 315Q457 262 457 175Q457 96 395 37T238 -22Q158 -22 100 21T42 130Q42 158 60 175T105 193Q133 193 151 175T169 130Q169 119 166 110T159 94T148 82T136 74T126 70T118 67L114 66Q165 21 238 21Q293 21 321 74Q338 107 338 175V195Q338 290 274 322Q259 328 213 329L171 330L168 332Q166 335 166 348Q166 366 174 366Q202 366 232 371Q266 376 294 413T322 525V533Q322 590 287 612Q265 626 240 626Q208 626 181 615T143 592T132 580H135Q138 579 143 578T153 573T165 566T175 555T183 540T186 520Q186 498 172 481T127 463Z"/>
        </defs>
        <g stroke="currentColor" fill="currentColor" stroke-width="0" transform="scale(1,-1)">
          <g data-mml-node="math">
            <g data-mml-node="mtext" data-semantic-type="text" data-semantic-role="integer" data-semantic-font="normal" data-semantic-annotation="clearspeak:unit" data-semantic-id="0" data-semantic-speech="3">
              <use data-c="33" xlink:href="#another-prefigure-MJX-4-TEX-N-33"/>
            </g>
          </g>
        </g>
      </svg>
    </g>
  </g>
  <g id="another-prefigure-label-3" transform="translate(54.0,185.0) translate(-9.0,-6.0)">
    <g id="another-prefigure-g-3">
      <svg xmlns:xlink="http://www.w3.org/1999/xlink" style="vertical-align: 0.000px" width="9.048px" height="12.056px" role="img" focusable="false" viewBox="0 -666 500 666" x="0.0" y="0.0">
        <defs>
          <path id="another-prefigure-MJX-5-TEX-N-31" d="M213 578L200 573Q186 568 160 563T102 556H83V602H102Q149 604 189 617T245 641T273 663Q275 666 285 666Q294 666 302 660V361L303 61Q310 54 315 52T339 48T401 46H427V0H416Q395 3 257 3Q121 3 100 0H88V46H114Q136 46 152 46T177 47T193 50T201 52T207 57T213 61V578Z"/>
        </defs>
        <g stroke="currentColor" fill="currentColor" stroke-width="0" transform="scale(1,-1)">
          <g data-mml-node="math">
            <g data-mml-node="mtext" data-semantic-type="text" data-semantic-role="integer" data-semantic-font="normal" data-semantic-annotation="clearspeak:unit" data-semantic-id="0" data-semantic-speech="1">
              <use data-c="31" xlink:href="#another-prefigure-MJX-5-TEX-N-31"/>
            </g>
          </g>
        </g>
      </svg>
    </g>
  </g>
  <g id="another-prefigure-label-4" transform="translate(54.0,125.0) translate(-9.0,-6.0)">
    <g id="another-prefigure-g-4">
      <svg xmlns:xlink="http://www.w3.org/1999/xlink" style="vertical-align: 0.000px" width="9.048px" height="12.056px" role="img" focusable="false" viewBox="0 -666 500 666" x="0.0" y="0.0">
        <defs>
          <path id="another-prefigure-MJX-6-TEX-N-32" d="M109 429Q82 429 66 447T50 491Q50 562 103 614T235 666Q326 666 387 610T449 465Q449 422 429 383T381 315T301 241Q265 210 201 149L142 93L218 92Q375 92 385 97Q392 99 409 186V189H449V186Q448 183 436 95T421 3V0H50V19V31Q50 38 56 46T86 81Q115 113 136 137Q145 147 170 174T204 211T233 244T261 278T284 308T305 340T320 369T333 401T340 431T343 464Q343 527 309 573T212 619Q179 619 154 602T119 569T109 550Q109 549 114 549Q132 549 151 535T170 489Q170 464 154 447T109 429Z"/>
        </defs>
        <g stroke="currentColor" fill="currentColor" stroke-width="0" transform="scale(1,-1)">
          <g data-mml-node="math">
            <g data-mml-node="mtext" data-semantic-type="text" data-semantic-role="integer" data-semantic-font="normal" data-semantic-annotation="clearspeak:unit" data-semantic-id="0" data-semantic-speech="2">
              <use data-c="32" xlink:href="#another-prefigure-MJX-6-TEX-N-32"/>
            </g>
          </g>
        </g>
      </svg>
    </g>
  </g>
  <g id="another-prefigure-label-5" transform="translate(54.0,65.0) translate(-9.0,-6.2)">
    <g id="another-prefigure-g-5">
      <svg xmlns:xlink="http://www.w3.org/1999/xlink" style="vertical-align: -0.400px" width="9.048px" height="12.432px" role="img" focusable="false" viewBox="0 -665 500 687" x="0.0" y="0.0">
        <defs>
          <path id="another-prefigure-MJX-7-TEX-N-33" d="M127 463Q100 463 85 480T69 524Q69 579 117 622T233 665Q268 665 277 664Q351 652 390 611T430 522Q430 470 396 421T302 350L299 348Q299 347 308 345T337 336T375 315Q457 262 457 175Q457 96 395 37T238 -22Q158 -22 100 21T42 130Q42 158 60 175T105 193Q133 193 151 175T169 130Q169 119 166 110T159 94T148 82T136 74T126 70T118 67L114 66Q165 21 238 21Q293 21 321 74Q338 107 338 175V195Q338 290 274 322Q259 328 213 329L171 330L168 332Q166 335 166 348Q166 366 174 366Q202 366 232 371Q266 376 294 413T322 525V533Q322 590 287 612Q265 626 240 626Q208 626 181 615T143 592T132 580H135Q138 579 143 578T153 573T165 566T175 555T183 540T186 520Q186 498 172 481T127 463Z"/>
        </defs>
        <g stroke="currentColor" fill="currentColor" stroke-width="0" transform="scale(1,-1)">
          <g data-mml-node="math">
            <g data-mml-node="mtext" data-semantic-type="text" data-semantic-role="integer" data-semantic-font="normal" data-semantic-annotation="clearspeak:unit" data-semantic-id="0" data-semantic-speech="3">
              <use data-c="33" xlink:href="#another-prefigure-MJX-7-TEX-N-33"/>
            </g>
          </g>
        </g>
      </svg>
    </g>
  </g>
  <path id="another-prefigure-path-1" stroke="black" stroke-width="4" fill="none" marker-end="url(#another-prefigure-arrow-head-end-4_None_24_60-black)" d="M 65.0 245.0 L 180.6 187.2"/>
  <path id="another-prefigure-path-2" stroke="black" stroke-width="4" fill="none" marker-end="url(#another-prefigure-arrow-head-end-4_None_24_60-black)" d="M 65.0 245.0 L 122.8 129.4"/>
</svg>
