<svg xmlns="http://www.w3.org/2000/svg" id="prefig-figure" width="310" height="310" viewBox="0 0 310 310">
  <defs>
    <clipPath id="prefig-clipPath-0">
      <rect x="5.0" y="5.0" width="300.0" height="300.0"/>
    </clipPath>
    <clipPath id="prefig-clipPath-1">
      <rect x="5.0" y="5.0" width="300.0" height="300.0"/>
    </clipPath>
  </defs>
  <g id="prefig-grid-axes">
    <g id="prefig-grid" stroke="#ccc" stroke-width="1">
      <line x1="5.0" y1="305.0" x2="5.0" y2="5.0"/>
      <line x1="42.5" y1="305.0" x2="42.5" y2="5.0"/>
      <line x1="80.0" y1="305.0" x2="80.0" y2="5.0"/>
      <line x1="117.5" y1="305.0" x2="117.5" y2="5.0"/>
      <line x1="155.0" y1="305.0" x2="155.0" y2="5.0"/>
      <line x1="192.5" y1="305.0" x2="192.5" y2="5.0"/>
      <line x1="230.0" y1="305.0" x2="230.0" y2="5.0"/>
      <line x1="267.5" y1="305.0" x2="267.5" y2="5.0"/>
      <line x1="305.0" y1="305.0" x2="305.0" y2="5.0"/>
      <line x1="5.0" y1="305.0" x2="305.0" y2="305.0"/>
      <line x1="5.0" y1="267.5" x2="305.0" y2="267.5"/>
      <line x1="5.0" y1="230.0" x2="305.0" y2="230.0"/>
      <line x1="5.0" y1="192.5" x2="305.0" y2="192.5"/>
      <line x1="5.0" y1="155.0" x2="305.0" y2="155.0"/>
      <line x1="5.0" y1="117.5" x2="305.0" y2="117.5"/>
      <line x1="5.0" y1="80.0" x2="305.0" y2="80.0"/>
      <line x1="5.0" y1="42.5" x2="305.0" y2="42.5"/>
      <line x1="5.0" y1="5.0" x2="305.0" y2="5.0"/>
    </g>
    <g id="prefig-axes" stroke="black" stroke-width="2">
      <line id="prefig-line-18" x1="5.0" y1="155.0" x2="305.0" y2="155.0" stroke="black" stroke-width="2"/>
      <g>
        <line id="prefig-line-19" x1="80.0" y1="158.0" x2="80.0" y2="152.0"/>
        <line id="prefig-line-20" x1="230.0" y1="158.0" x2="230.0" y2="152.0"/>
      </g>
      <line id="prefig-line-21" x1="155.0" y1="305.0" x2="155.0" y2="5.0" stroke="black" stroke-width="2"/>
      <g>
        <line id="prefig-line-22" x1="152.0" y1="230.0" x2="158.0" y2="230.0"/>
        <line id="prefig-line-23" x1="152.0" y1="80.0" x2="158.0" y2="80.0"/>
      </g>
    </g>
    <g id="prefig-label-0" transform="translate(80.0,166.0) translate(-7.5,-0.0)">
      <g id="prefig-g-0">
        <svg xmlns:xlink="http://www.w3.org/1999/xlink" style="vertical-align: 0.000px" width="15.080px" height="12.056px" role="img" focusable="false" viewBox="0 -666 833 666" x="0.0" y="0.0">
          <defs>
            <path id="prefig-MJX-2-TEX-N-2D" d="M11 179V252H277V179H11Z"/>
            <path id="prefig-MJX-2-TEX-N-32" d="M109 429Q82 429 66 447T50 491Q50 562 103 614T235 666Q326 666 387 610T449 465Q449 422 429 383T381 315T301 241Q265 210 201 149L142 93L218 92Q375 92 385 97Q392 99 409 186V189H449V186Q448 183 436 95T421 3V0H50V19V31Q50 38 56 46T86 81Q115 113 136 137Q145 147 170 174T204 211T233 244T261 278T284 308T305 340T320 369T333 401T340 431T343 464Q343 527 309 573T212 619Q179 619 154 602T119 569T109 550Q109 549 114 549Q132 549 151 535T170 489Q170 464 154 447T109 429Z"/>
          </defs>
          <g stroke="currentColor" fill="currentColor" stroke-width="0" transform="scale(1,-1)">
            <g data-mml-node="math">
              <g data-mml-node="mtext" data-semantic-type="text" data-semantic-role="unknown" data-semantic-font="normal" data-semantic-annotation="clearspeak:unit" data-semantic-id="0" data-semantic-speech="hyphen 2">
                <use data-c="2D" xlink:href="#prefig-MJX-2-TEX-N-2D"/>
                <use data-c="32" xlink:href="#prefig-MJX-2-TEX-N-32" transform="translate(333,0)"/>
              </g>
            </g>
          </g>
        </svg>
      </g>
    </g>
    <g id="prefig-label-1" transform="translate(230.0,166.0) translate(-4.5,-0.0)">
      <g id="prefig-g-1">
        <svg xmlns:xlink="http://www.w3.org/1999/xlink" style="vertical-align: 0.000px" width="9.048px" height="12.056px" role="img" focusable="false" viewBox="0 -666 500 666" x="0.0" y="0.0">
          <defs>
            <path id="prefig-MJX-3-TEX-N-32" d="M109 429Q82 429 66 447T50 491Q50 562 103 614T235 666Q326 666 387 610T449 465Q449 422 429 383T381 315T301 241Q265 210 201 149L142 93L218 92Q375 92 385 97Q392 99 409 186V189H449V186Q448 183 436 95T421 3V0H50V19V31Q50 38 56 46T86 81Q115 113 136 137Q145 147 170 174T204 211T233 244T261 278T284 308T305 340T320 369T333 401T340 431T343 464Q343 527 309 573T212 619Q179 619 154 602T119 569T109 550Q109 549 114 549Q132 549 151 535T170 489Q170 464 154 447T109 429Z"/>
          </defs>
          <g stroke="currentColor" fill="currentColor" stroke-width="0" transform="scale(1,-1)">
            <g data-mml-node="math">
              <g data-mml-node="mtext" data-semantic-type="text" data-semantic-role="integer" data-semantic-font="normal" data-semantic-annotation="clearspeak:unit" data-semantic-id="0" data-semantic-speech="2">
                <use data-c="32" xlink:href="#prefig-MJX-3-TEX-N-32"/>
              </g>
            </g>
          </g>
        </svg>
      </g>
    </g>
    <g id="prefig-label-2" transform="translate(144.0,230.0) translate(-15.1,-6.0)">
      <g id="prefig-g-2">
        <svg xmlns:xlink="http://www.w3.org/1999/xlink" style="vertical-align: 0.000px" width="15.080px" height="12.056px" role="img" focusable="false" viewBox="0 -666 833 666" x="0.0" y="0.0">
          <defs>
            <path id="prefig-MJX-4-TEX-N-2D" d="M11 179V252H277V179H11Z"/>
            <path id="prefig-MJX-4-TEX-N-32" d="M109 429Q82 429 66 447T50 491Q50 562 103 614T235 666Q326 666 387 610T449 465Q449 422 429 383T381 315T301 241Q265 210 201 149L142 93L218 92Q375 92 385 97Q392 99 409 186V189H449V186Q448 183 436 95T421 3V0H50V19V31Q50 38 56 46T86 81Q115 113 136 137Q145 147 170 174T204 211T233 244T261 278T284 308T305 340T320 369T333 401T340 431T343 464Q343 527 309 573T212 619Q179 619 154 602T119 569T109 550Q109 549 114 549Q132 549 151 535T170 489Q170 464 154 447T109 429Z"/>
          </defs>
          <g stroke="currentColor" fill="currentColor" stroke-width="0" transform="scale(1,-1)">
            <g data-mml-node="math">
              <g data-mml-node="mtext" data-semantic-type="text" data-semantic-role="unknown" data-semantic-font="normal" data-semantic-annotation="clearspeak:unit" data-semantic-id="0" data-semantic-speech="hyphen 2">
                <use data-c="2D" xlink:href="#prefig-MJX-4-TEX-N-2D"/>
                <use data-c="32" xlink:href="#prefig-MJX-4-TEX-N-32" transform="translate(333,0)"/>
              </g>
            </g>
          </g>
        </svg>
      </g>
    </g>
    <g id="prefig-label-3" transform="translate(144.0,80.0) translate(-9.0,-6.0)">
      <g id="prefig-g-3">
        <svg xmlns:xlink="http://www.w3.org/1999/xlink" style="vertical-align: 0.000px" width="9.048px" height="12.056px" role="img" focusable="false" viewBox="0 -666 500 666" x="0.0" y="0.0">
          <defs>
            <path id="prefig-MJX-5-TEX-N-32" d="M109 429Q82 429 66 447T50 491Q50 562 103 614T235 666Q326 666 387 610T449 465Q449 422 429 383T381 315T301 241Q265 210 201 149L142 93L218 92Q375 92 385 97Q392 99 409 186V189H449V186Q448 183 436 95T421 3V0H50V19V31Q50 38 56 46T86 81Q115 113 136 137Q145 147 170 174T204 211T233 244T261 278T284 308T305 340T320 369T333 401T340 431T343 464Q343 527 309 573T212 619Q179 619 154 602T119 569T109 550Q109 549 114 549Q132 549 151 535T170 489Q170 464 154 447T109 429Z"/>
          </defs>
          <g stroke="currentColor" fill="currentColor" stroke-width="0" transform="scale(1,-1)">
            <g data-mml-node="math">
              <g data-mml-node="mtext" data-semantic-type="text" data-semantic-role="integer" data-semantic-font="normal" data-semantic-annotation="clearspeak:unit" data-semantic-id="0" data-semantic-speech="2">
                <use data-c="32" xlink:href="#prefig-MJX-5-TEX-N-32"/>
              </g>
            </g>
          </g>
        </svg>
      </g>
    </g>
  </g>
  <path id="prefig-graph-0" stroke="blue" stroke-width="2" fill="none" d="M 9.8 -295.0 L 11.0 -285.5 L 14.0 -262.7 L 17.0 -240.3 L 20.0 -218.5 L 23.0 -197.1 L 26.0 -176.3 L 29.0 -155.9 L 32.0 -135.9 L 35.0 -116.5 L 38.0 -97.5 L 41.0 -79.1 L 44.0 -61.1 L 47.0 -43.5 L 50.0 -26.5 L 53.0 -9.9 L 56.0 6.1 L 59.0 21.7 L 62.0 36.9 L 65.0 51.5 L 68.0 65.7 L 71.0 79.3 L 74.0 92.5 L 77.0 105.3 L 80.0 117.5 L 83.0 129.3 L 86.0 140.5 L 89.0 151.3 L 92.0 161.7 L 95.0 171.5 L 98.0 180.9 L 101.0 189.7 L 104.0 198.1 L 107.0 206.1 L 110.0 213.5 L 113.0 220.5 L 116.0 226.9 L 119.0 232.9 L 122.0 238.5 L 125.0 243.5 L 128.0 248.1 L 131.0 252.1 L 134.0 255.7 L 137.0 258.9 L 140.0 261.5 L 143.0 263.7 L 146.0 265.3 L 149.0 266.5 L 152.0 267.3 L 155.0 267.5 L 158.0 267.3 L 161.0 266.5 L 164.0 265.3 L 167.0 263.7 L 170.0 261.5 L 173.0 258.9 L 176.0 255.7 L 179.0 252.1 L 182.0 248.1 L 185.0 243.5 L 188.0 238.5 L 191.0 232.9 L 194.0 226.9 L 197.0 220.5 L 200.0 213.5 L 203.0 206.1 L 206.0 198.1 L 209.0 189.7 L 212.0 180.9 L 215.0 171.5 L 218.0 161.7 L 221.0 151.3 L 224.0 140.5 L 227.0 129.3 L 230.0 117.5 L 233.0 105.3 L 236.0 92.5 L 239.0 79.3 L 242.0 65.7 L 245.0 51.5 L 248.0 36.9 L 251.0 21.7 L 254.0 6.1 L 257.0 -9.9 L 260.0 -26.5 L 263.0 -43.5 L 266.0 -61.1 L 269.0 -79.1 L 272.0 -97.5 L 275.0 -116.5 L 278.0 -135.9 L 281.0 -155.9 L 284.0 -176.3 L 287.0 -197.1 L 290.0 -218.5 L 293.0 -240.3 L 296.0 -262.7 L 299.0 -285.5" clip-path="url(#prefig-clipPath-1)"/>
</svg>
